<svg class="svg-icon" style="width: 1em;height: 1em;vertical-align: middle;fill: currentColor;overflow: hidden;" viewBox="0 0 1024 1024" version="1.1" xmlns="http://www.w3.org/2000/svg"><path d="M0 0h1024v1024H0z" fill="none" /><path d="M928 704l22.624 22.624A32 32 0 0 0 960 704h-32z m-224 224v32a32 32 0 0 0 22.624-9.376L704 928z m96-832V64v32zM224 96v32-32z m0 832v-32 32z m-128-128h32-32zM96 224H64h32z m832 0h-32 32z m-256 448v-32a32 32 0 0 0-32 32h32z m0 256v32-32z m256-256h32-32z m-22.624 9.376l-224 224 45.248 45.248 224-224-45.248-45.248zM800 64H224v64h576V64zM128 800V224H64v576h64zM800 128a96 96 0 0 1 96 96h64a160 160 0 0 0-160-160v64zM224 64a160 160 0 0 0-160 160h64a96 96 0 0 1 96-96V64z m0 832a96 96 0 0 1-96-96H64a160 160 0 0 0 160 160v-64z m480 0h-32v64h32v-64z m-32 0H224v64h448v-64z m288-192v-32h-64v32h64z m0-32V224h-64v448h64z m-256 256v-256h-64v256h64z m-32-224h256v-64h-256v64z" fill="#FFF" /></svg>