<?xml version="1.0" encoding="utf-8"?>
<!-- Generator: Adobe Illustrator 28.0.0, SVG Export Plug-In . SVG Version: 6.00 Build 0)  -->
<svg version="1.1" id="Layer_1" xmlns="http://www.w3.org/2000/svg" xmlns:xlink="http://www.w3.org/1999/xlink" x="0px" y="0px"
	 viewBox="0 0 512 512" style="enable-background:new 0 0 512 512;" xml:space="preserve">
<g>
	<path d="M512,97.21c-18.83,8.34-39.06,13.98-60.32,16.53c21.69-12.99,38.33-33.6,46.18-58.13c-20.29,12.04-42.78,20.79-66.7,25.48
		c-19.17-20.38-46.45-33.15-76.67-33.15c-58,0-105.03,47.04-105.03,105.08c0,8.21,0.95,16.19,2.71,23.9
		c-87.33-4.4-164.7-46.23-216.52-109.77c-9.02,15.56-14.21,33.6-14.21,52.81c0,36.44,18.56,68.62,46.72,87.45
		c-17.23-0.56-33.42-5.28-47.58-13.15v1.35c0,50.89,36.19,93.35,84.27,103c-8.84,2.39-18.11,3.65-27.67,3.65
		c-6.76,0-13.37-0.63-19.78-1.85c13.37,41.72,52.16,72.11,98.13,72.92c-35.97,28.19-81.27,44.99-130.47,44.99
		c-8.48,0-16.84-0.5-25.07-1.47c46.5,29.83,101.7,47.2,161,47.2c193.25,0,298.89-160.05,298.89-298.87c0-4.51-0.11-9.06-0.32-13.57
		c20.52-14.84,38.33-33.31,52.38-54.34L512,97.21z"/>
</g>
</svg>
